<?xml version="1.0" encoding="utf-8" ?>
<svg baseProfile="tiny" fill="none" height="100" stroke="black" stroke-opacity="1.0" stroke-width="0.5" version="1.2" width="100" xmlns="http://www.w3.org/2000/svg" xmlns:ev="http://www.w3.org/2001/xml-events" xmlns:xlink="http://www.w3.org/1999/xlink"><defs /><rect height="10" width="10" x="0.0" y="0.0" /><rect height="10" width="10" x="0.0" y="10.0406" /><rect height="10" width="10" x="0.0" y="19.8885" /><rect height="10" width="10" x="0.0" y="29.9964" /><rect height="10" width="10" x="0.0" y="39.5052" /><rect height="10" width="10" x="0.0" y="48.8271" /><rect height="10" width="10" x="0.0" y="59.3331" /><rect height="10" width="10" x="0.0" y="68.4643" /><rect height="10" width="10" x="0.0" y="78.0841" /><rect height="10" width="10" x="0.0" y="89.4217" /><rect height="10" width="10" x="9.9759" y="0.0" /><rect height="10" width="10" x="10.0174" y="10.0244" /><rect height="10" width="10" x="10.0182" y="20.0191" /><rect height="10" width="10" x="9.9754" y="30.0408" /><rect height="10" width="10" x="10.0368" y="40.2542" /><rect height="10" width="10" x="10.0359" y="50.9729" /><rect height="10" width="10" x="10.02" y="60.914" /><rect height="10" width="10" x="10.0457" y="71.3842" /><rect height="10" width="10" x="9.9818" y="80.6176" /><rect height="10" width="10" x="9.9562" y="90.6087" /><rect height="10" width="10" x="19.8586" y="0.0" /><rect height="10" width="10" x="20.1606" y="10.0029" /><rect height="10" width="10" x="19.978" y="19.9606" /><rect height="10" width="10" x="19.811" y="30.3241" /><rect height="10" width="10" x="20.1815" y="39.5834" /><rect height="10" width="10" x="19.9587" y="50.0783" /><rect height="10" width="10" x="19.8342" y="59.2554" /><rect height="10" width="10" x="19.99" y="68.006" /><rect height="10" width="10" x="20.1732" y="81.2672" /><rect height="10" width="10" x="20.0029" y="87.323" /><rect height="10" width="10" x="30.4249" y="0.0" /><rect height="10" width="10" x="29.9449" y="9.9857" /><rect height="10" width="10" x="30.0442" y="19.9323" /><rect height="10" width="10" x="30.1351" y="29.729" /><rect height="10" width="10" x="30.2441" y="39.595" /><rect height="10" width="10" x="30.1393" y="49.4129" /><rect height="10" width="10" x="30.0775" y="58.9807" /><rect height="10" width="10" x="30.3521" y="72.1899" /><rect height="10" width="10" x="29.8721" y="77.9453" /><rect height="10" width="10" x="30.2914" y="88.0352" /><rect height="10" width="10" x="40.1927" y="0.0" /><rect height="10" width="10" x="40.7808" y="10.0247" /><rect height="10" width="10" x="40.3282" y="20.1031" /><rect height="10" width="10" x="40.2611" y="30.2726" /><rect height="10" width="10" x="40.1003" y="39.8756" /><rect height="10" width="10" x="39.2072" y="49.5549" /><rect height="10" width="10" x="40.2632" y="61.534" /><rect height="10" width="10" x="40.4732" y="71.9918" /><rect height="10" width="10" x="40.2627" y="79.2874" /><rect height="10" width="10" x="39.4945" y="91.2141" /><rect height="10" width="10" x="51.0523" y="0.0" /><rect height="10" width="10" x="49.4088" y="9.9529" /><rect height="10" width="10" x="50.9719" y="19.8158" /><rect height="10" width="10" x="50.8023" y="29.7084" /><rect height="10" width="10" x="50.996" y="39.2708" /><rect height="10" width="10" x="50.2363" y="48.8104" /><rect height="10" width="10" x="50.9991" y="61.1641" /><rect height="10" width="10" x="50.3508" y="70.9897" /><rect height="10" width="10" x="48.8326" y="82.3927" /><rect height="10" width="10" x="49.3952" y="90.0208" /><rect height="10" width="10" x="60.6898" y="0.0" /><rect height="10" width="10" x="59.5028" y="10.0221" /><rect height="10" width="10" x="60.5428" y="20.183" /><rect height="10" width="10" x="60.9915" y="29.7099" /><rect height="10" width="10" x="61.7796" y="39.5326" /><rect height="10" width="10" x="58.3533" y="50.0229" /><rect height="10" width="10" x="59.3012" y="61.323" /><rect height="10" width="10" x="59.0453" y="71.9562" /><rect height="10" width="10" x="60.2801" y="78.7061" /><rect height="10" width="10" x="61.6855" y="85.9763" /><rect height="10" width="10" x="68.4538" y="0.0" /><rect height="10" width="10" x="71.9106" y="10.0349" /><rect height="10" width="10" x="71.325" y="19.907" /><rect height="10" width="10" x="71.1059" y="29.6508" /><rect height="10" width="10" x="71.6436" y="39.217" /><rect height="10" width="10" x="70.0895" y="49.4881" /><rect height="10" width="10" x="67.7028" y="60.3083" /><rect height="10" width="10" x="72.3091" y="72.1627" /><rect height="10" width="10" x="72.2217" y="78.1325" /><rect height="10" width="10" x="68.3721" y="93.4393" /><rect height="10" width="10" x="77.9442" y="0.0" /><rect height="10" width="10" x="78.5484" y="9.9772" /><rect height="10" width="10" x="78.2227" y="20.096" /><rect height="10" width="10" x="77.8112" y="29.6186" /><rect height="10" width="10" x="78.8822" y="39.255" /><rect height="10" width="10" x="80.1297" y="49.2157" /><rect height="10" width="10" x="77.6422" y="60.9063" /><rect height="10" width="10" x="77.4165" y="69.833" /><rect height="10" width="10" x="81.9054" y="79.3997" /><rect height="10" width="10" x="78.6717" y="92.357" /><rect height="10" width="10" x="86.0124" y="0.0" /><rect height="10" width="10" x="88.021" y="9.9776" /><rect height="10" width="10" x="88.5635" y="20.1229" /><rect height="10" width="10" x="92.5292" y="30.0895" /><rect height="10" width="10" x="91.555" y="40.6978" /><rect height="10" width="10" x="91.6217" y="48.9142" /><rect height="10" width="10" x="89.9461" y="59.7962" /><rect height="10" width="10" x="91.4807" y="67.6875" /><rect height="10" width="10" x="85.9654" y="81.612" /><rect height="10" width="10" x="88.899" y="88.9475" /></svg>