<?xml version="1.0" encoding="utf-8" ?>
<svg id="all" baseProfile="tiny" fill="none" height="100" stroke="black" stroke-opacity="1.0" stroke-width="0.5" version="1.2" width="100" xmlns="http://www.w3.org/2000/svg" xmlns:ev="http://www.w3.org/2001/xml-events" xmlns:xlink="http://www.w3.org/1999/xlink"><defs /><rect height="10" width="10" x="0.0" y="0.0" /><rect height="10" width="10" x="-4.7213" y="11.0002" /><rect height="10" width="10" x="8.1134" y="29.7377" /><rect height="10" width="10" x="-13.3309" y="32.8775" /><rect height="10" width="10" x="-14.5346" y="41.2992" /><rect height="10" width="10" x="20.5974" y="29.9387" /><rect height="10" width="10" x="-20.1585" y="78.6259" /><rect height="10" width="10" x="33.9324" y="88.6593" /><rect height="10" width="10" x="23.455" y="80.8411" /><rect height="10" width="10" x="34.2763" y="84.4516" /><rect height="10" width="10" x="10.2897" y="-0.1695" /><rect height="10" width="10" x="11.9628" y="12.4339" /><rect height="10" width="10" x="9.4798" y="29.9719" /><rect height="10" width="10" x="10.9332" y="29.3434" /><rect height="10" width="10" x="-1.2191" y="37.1961" /><rect height="10" width="10" x="-7.2582" y="58.3073" /><rect height="10" width="10" x="0.9537" y="29.8872" /><rect height="10" width="10" x="-13.2388" y="89.1868" /><rect height="10" width="10" x="-4.94" y="44.2068" /><rect height="10" width="10" x="-16.3389" y="68.4401" /><rect height="10" width="10" x="19.6918" y="-0.7636" /><rect height="10" width="10" x="24.8554" y="7.5755" /><rect height="10" width="10" x="23.6834" y="28.3647" /><rect height="10" width="10" x="12.83" y="29.5701" /><rect height="10" width="10" x="34.7674" y="24.504" /><rect height="10" width="10" x="6.2813" y="52.8916" /><rect height="10" width="10" x="46.4336" y="81.3667" /><rect height="10" width="10" x="43.6314" y="100.329" /><rect height="10" width="10" x="-20.9859" y="111.6986" /><rect height="10" width="10" x="18.3402" y="49.7332" /><rect height="10" width="10" x="29.5105" y="0.4141" /><rect height="10" width="10" x="34.836" y="15.4605" /><rect height="10" width="10" x="34.4496" y="22.262" /><rect height="10" width="10" x="31.6715" y="27.5128" /><rect height="10" width="10" x="47.9898" y="53.6922" /><rect height="10" width="10" x="19.0638" y="40.5862" /><rect height="10" width="10" x="11.2143" y="32.0559" /><rect height="10" width="10" x="26.5672" y="52.3876" /><rect height="10" width="10" x="0.0173" y="47.7279" /><rect height="10" width="10" x="66.7158" y="125.9549" /><rect height="10" width="10" x="39.5841" y="1.4938" /><rect height="10" width="10" x="44.5454" y="10.9993" /><rect height="10" width="10" x="29.8036" y="8.727" /><rect height="10" width="10" x="54.0288" y="14.6062" /><rect height="10" width="10" x="33.238" y="28.8645" /><rect height="10" width="10" x="54.4927" y="36.0585" /><rect height="10" width="10" x="10.7702" y="80.4865" /><rect height="10" width="10" x="48.921" y="57.1921" /><rect height="10" width="10" x="36.7048" y="113.6526" /><rect height="10" width="10" x="66.7748" y="109.3402" /><rect height="10" width="10" x="51.0262" y="2.2723" /><rect height="10" width="10" x="50.6237" y="9.8444" /><rect height="10" width="10" x="51.9751" y="10.714" /><rect height="10" width="10" x="55.8918" y="13.0347" /><rect height="10" width="10" x="43.8189" y="26.6761" /><rect height="10" width="10" x="54.431" y="27.4262" /><rect height="10" width="10" x="43.7464" y="38.9805" /><rect height="10" width="10" x="16.425" y="40.9232" /><rect height="10" width="10" x="48.1012" y="121.5728" /><rect height="10" width="10" x="90.3733" y="127.6761" /><rect height="10" width="10" x="57.6941" y="-1.8728" /><rect height="10" width="10" x="56.5771" y="13.5266" /><rect height="10" width="10" x="56.8158" y="12.5914" /><rect height="10" width="10" x="66.5476" y="28.1649" /><rect height="10" width="10" x="73.8043" y="51.0601" /><rect height="10" width="10" x="71.416" y="22.409" /><rect height="10" width="10" x="37.0618" y="30.2266" /><rect height="10" width="10" x="48.7166" y="56.3683" /><rect height="10" width="10" x="79.9475" y="96.4401" /><rect height="10" width="10" x="88.2197" y="87.119" /><rect height="10" width="10" x="68.8535" y="3.4326" /><rect height="10" width="10" x="62.0507" y="8.4436" /><rect height="10" width="10" x="57.5704" y="20.8695" /><rect height="10" width="10" x="66.7944" y="15.0623" /><rect height="10" width="10" x="57.2493" y="59.1947" /><rect height="10" width="10" x="54.8039" y="24.1908" /><rect height="10" width="10" x="66.796" y="79.543" /><rect height="10" width="10" x="39.2751" y="43.4381" /><rect height="10" width="10" x="53.2177" y="87.2809" /><rect height="10" width="10" x="69.2647" y="101.3252" /><rect height="10" width="10" x="78.5843" y="-3.9222" /><rect height="10" width="10" x="79.8863" y="6.9358" /><rect height="10" width="10" x="93.6823" y="8.9513" /><rect height="10" width="10" x="72.1129" y="40.2184" /><rect height="10" width="10" x="89.815" y="25.1736" /><rect height="10" width="10" x="75.0223" y="33.0248" /><rect height="10" width="10" x="49.9096" y="51.7613" /><rect height="10" width="10" x="98.3691" y="36.4992" /><rect height="10" width="10" x="74.6915" y="114.6968" /><rect height="10" width="10" x="122.9056" y="96.8237" /><rect height="10" width="10" x="91.8355" y="-4.418" /><rect height="10" width="10" x="86.984" y="14.1111" /><rect height="10" width="10" x="97.3888" y="14.6408" /><rect height="10" width="10" x="99.7408" y="13.6178" /><rect height="10" width="10" x="99.6534" y="43.8731" /><rect height="10" width="10" x="94.7458" y="46.6869" /><rect height="10" width="10" x="61.8636" y="69.3348" /><rect height="10" width="10" x="74.8808" y="73.7158" /><rect height="10" width="10" x="63.3234" y="61.7482" /><rect height="10" width="10" x="74.437" y="90.9651" /></svg>