<?xml version="1.0" encoding="utf-8" ?>
<svg id="all" baseProfile="tiny" fill="none" height="100" stroke="black" stroke-opacity="1.0" stroke-width="0.5" version="1.2" width="100" xmlns="http://www.w3.org/2000/svg" xmlns:ev="http://www.w3.org/2001/xml-events" xmlns:xlink="http://www.w3.org/1999/xlink"><defs /><rect height="10" transform="rotate(-0.0,5.0,5.0)" width="10" x="0.0" y="0.0" /><rect height="10" transform="rotate(-0.24487978515142902,5.00918122767227,14.995509384006166)" width="10" x="0.0092" y="9.9955" /><rect height="10" transform="rotate(0.36489782053834957,5.043570698451189,24.969987645452726)" width="10" x="0.0436" y="19.97" /><rect height="10" transform="rotate(-0.32296981648396184,5.048296948393446,35.05229180178341)" width="10" x="0.0483" y="30.0523" /><rect height="10" transform="rotate(0.4015987643672278,4.845505254565978,45.053730450217984)" width="10" x="-0.1545" y="40.0537" /><rect height="10" transform="rotate(-2.2634545628472313,5.187024189075738,55.204125661081484)" width="10" x="0.187" y="50.2041" /><rect height="10" transform="rotate(1.4034772874253703,5.408142218041237,65.0771665034039)" width="10" x="0.4081" y="60.0772" /><rect height="10" transform="rotate(13.959785769443641,5.01527491874728,74.57611270686051)" width="10" x="0.0153" y="69.5761" /><rect height="10" transform="rotate(-12.737695784072352,4.757081849788708,84.86689677796281)" width="10" x="-0.2429" y="79.8669" /><rect height="10" transform="rotate(23.901952345348864,4.93294784153716,94.8608965508986)" width="10" x="-0.0671" y="89.8609" /><rect height="10" transform="rotate(16.571136216738765,5.245496423482339,105.55696324741416)" width="10" x="0.2455" y="100.557" /><rect height="10" transform="rotate(-22.9022895842793,5.260706209601335,115.67774561641826)" width="10" x="0.2607" y="110.6777" /><rect height="10" transform="rotate(47.390779729491065,6.185626393066548,123.4192886114894)" width="10" x="1.1856" y="118.4193" /><rect height="10" transform="rotate(-7.448365438768294,3.139060072739526,136.82175506277358)" width="10" x="-1.8609" y="131.8218" /><rect height="10" transform="rotate(1.5352112097145787,6.651830020505453,145.95651508848212)" width="10" x="1.6518" y="140.9565" /><rect height="10" transform="rotate(37.008399123881254,7.504691852202043,157.2479272814705)" width="10" x="2.5047" y="152.2479" /><rect height="10" transform="rotate(-63.0271281409567,5.617475391727791,164.26268647187476)" width="10" x="0.6175" y="159.2627" /><rect height="10" transform="rotate(-81.65823753025845,2.4818385962845726,176.20892325234462)" width="10" x="-2.5182" y="171.2089" /><rect height="10" transform="rotate(54.72708939297096,7.645965483270132,186.76386664830474)" width="10" x="2.646" y="181.7639" /><rect height="10" transform="rotate(101.86642195929815,5.192928996149021,197.28564907825188)" width="10" x="0.1929" y="192.2856" /><rect height="10" transform="rotate(0.0,15.0,5.0)" width="10" x="10.0" y="0.0" /><rect height="10" transform="rotate(0.04954131571845092,14.992106915374324,15.004695399061811)" width="10" x="9.9921" y="10.0047" /><rect height="10" transform="rotate(-1.2653489918452412,14.957241396226753,24.953043803092207)" width="10" x="9.9572" y="19.953" /><rect height="10" transform="rotate(-1.3815259883030686,14.93523172758044,34.94230130720538)" width="10" x="9.9352" y="29.9423" /><rect height="10" transform="rotate(0.2934728055575447,14.953926156204819,45.07465823083513)" width="10" x="9.9539" y="40.0747" /><rect height="10" transform="rotate(4.470382261771838,14.985694099523906,54.723910894696765)" width="10" x="9.9857" y="49.7239" /><rect height="10" transform="rotate(6.57999480170324,15.274402437021267,65.1034702829772)" width="10" x="10.2744" y="60.1035" /><rect height="10" transform="rotate(-3.9205248597532725,15.090622500119032,74.92676753560153)" width="10" x="10.0906" y="69.9268" /><rect height="10" transform="rotate(-6.924761967989327,14.846975642482294,84.29584881586402)" width="10" x="9.847" y="79.2958" /><rect height="10" transform="rotate(27.290667586647427,15.927663467134439,95.82851627375813)" width="10" x="10.9277" y="90.8285" /><rect height="10" transform="rotate(-12.302201534683707,14.736318651252741,104.97399651214114)" width="10" x="9.7363" y="99.974" /><rect height="10" transform="rotate(-33.854829487155385,16.393695004099268,114.98255574854568)" width="10" x="11.3937" y="109.9826" /><rect height="10" transform="rotate(10.60575871167033,14.84452280290437,126.71488370574751)" width="10" x="9.8445" y="121.7149" /><rect height="10" transform="rotate(6.034330839673773,15.734234427629469,135.03438555952036)" width="10" x="10.7342" y="130.0344" /><rect height="10" transform="rotate(62.21566699662203,16.61214365774489,143.75550435738828)" width="10" x="11.6121" y="138.7555" /><rect height="10" transform="rotate(24.12410439014983,17.365671109621374,154.59834385659508)" width="10" x="12.3657" y="149.5983" /><rect height="10" transform="rotate(71.61753285615042,15.13190403431046,165.27591071029846)" width="10" x="10.1319" y="160.2759" /><rect height="10" transform="rotate(92.98134769840681,17.32558749858554,173.9912392923639)" width="10" x="12.3256" y="168.9912" /><rect height="10" transform="rotate(-97.57343161832453,14.603917891667585,181.27931995991125)" width="10" x="9.6039" y="176.2793" /><rect height="10" transform="rotate(-22.621509486013636,18.34241253526514,190.69068838375895)" width="10" x="13.3424" y="185.6907" /><rect height="10" transform="rotate(-0.0,25.0,5.0)" width="10" x="20.0" y="0.0" /><rect height="10" transform="rotate(0.27209096267495914,24.990997103381563,14.996650286561147)" width="10" x="19.991" y="9.9967" /><rect height="10" transform="rotate(1.3059947973361319,24.982502437038118,24.995483180717713)" width="10" x="19.9825" y="19.9955" /><rect height="10" transform="rotate(-0.40482079038137897,24.91498585614655,35.11255378314635)" width="10" x="19.915" y="30.1126" /><rect height="10" transform="rotate(1.561309867053724,24.871345671419935,44.86611369518202)" width="10" x="19.8713" y="39.8661" /><rect height="10" transform="rotate(-3.244133020502046,24.827654442628134,54.9889992645253)" width="10" x="19.8277" y="49.989" /><rect height="10" transform="rotate(4.3262313380349315,25.254352240126437,64.92304513203723)" width="10" x="20.2544" y="59.923" /><rect height="10" transform="rotate(-16.033927922082732,24.473811557671,74.61750432913172)" width="10" x="19.4738" y="69.6175" /><rect height="10" transform="rotate(18.73023986563694,24.36866035721179,85.10772078987266)" width="10" x="19.3687" y="80.1077" /><rect height="10" transform="rotate(-20.71401171933798,24.855716102359768,95.0619654262344)" width="10" x="19.8557" y="90.062" /><rect height="10" transform="rotate(14.465587441505708,24.850985556920662,105.42453558760305)" width="10" x="19.851" y="100.4245" /><rect height="10" transform="rotate(-7.495113015505023,24.594041627338953,115.48134382003013)" width="10" x="19.594" y="110.4813" /><rect height="10" transform="rotate(-33.61596054663892,26.69622489049048,126.58289980921437)" width="10" x="21.6962" y="121.5829" /><rect height="10" transform="rotate(30.956760674794655,26.918319956775278,133.7870613679589)" width="10" x="21.9183" y="128.7871" /><rect height="10" transform="rotate(-18.405686431263682,25.98714188677419,145.97691804839206)" width="10" x="20.9871" y="140.9769" /><rect height="10" transform="rotate(-5.109728267720262,26.410828901525996,156.1193002264859)" width="10" x="21.4108" y="151.1193" /><rect height="10" transform="rotate(-3.2826681941102267,23.107348422886712,163.2440905286214)" width="10" x="18.1073" y="158.2441" /><rect height="10" transform="rotate(-30.843345730395008,25.120169226998858,176.0572768344946)" width="10" x="20.1202" y="171.0573" /><rect height="10" transform="rotate(-40.35182268036884,21.052991939716783,183.07223582929302)" width="10" x="16.053" y="178.0722" /><rect height="10" transform="rotate(66.82015928481653,26.167791831932057,194.31306637400073)" width="10" x="21.1678" y="189.3131" /><rect height="10" transform="rotate(-0.0,35.0,5.0)" width="10" x="30.0" y="0.0" /><rect height="10" transform="rotate(-0.2800356148868431,35.012570310838484,15.004564434271506)" width="10" x="30.0126" y="10.0046" /><rect height="10" transform="rotate(1.2726208031836468,34.955485844245985,24.956527022963062)" width="10" x="29.9555" y="19.9565" /><rect height="10" transform="rotate(0.796554535412912,35.06264824937364,35.12352106381053)" width="10" x="30.0626" y="30.1235" /><rect height="10" transform="rotate(-2.730695939951578,34.840658877215425,44.863789708775045)" width="10" x="29.8407" y="39.8638" /><rect height="10" transform="rotate(-4.260058912328395,35.10564490633652,54.95345764511749)" width="10" x="30.1056" y="49.9535" /><rect height="10" transform="rotate(-5.733353185852896,34.80448332201189,65.4532470728399)" width="10" x="29.8045" y="60.4532" /><rect height="10" transform="rotate(-4.6451433181110895,34.96613705304333,75.56523520282296)" width="10" x="29.9661" y="70.5652" /><rect height="10" transform="rotate(7.587823450077648,34.70177199807098,84.95798257106803)" width="10" x="29.7018" y="79.958" /><rect height="10" transform="rotate(-15.841155296314193,35.04410482624932,95.67477707773641)" width="10" x="30.0441" y="90.6748" /><rect height="10" transform="rotate(-18.392297286977684,34.18221471352917,104.65827410948141)" width="10" x="29.1822" y="99.6583" /><rect height="10" transform="rotate(-9.059054912591911,35.05705075363663,115.42268188017624)" width="10" x="30.0571" y="110.4227" /><rect height="10" transform="rotate(13.235380195891848,35.72215999537832,124.29862020390289)" width="10" x="30.7222" y="119.2986" /><rect height="10" transform="rotate(-6.6643986545108325,33.77518198436164,137.11899780637702)" width="10" x="28.7752" y="132.119" /><rect height="10" transform="rotate(46.37786270217086,33.858725445748895,145.85476419107385)" width="10" x="28.8587" y="140.8548" /><rect height="10" transform="rotate(25.339239858973656,32.91470142311286,153.161570618416)" width="10" x="27.9147" y="148.1616" /><rect height="10" transform="rotate(4.3514310038474555,35.17023685955302,167.06254619829986)" width="10" x="30.1702" y="162.0625" /><rect height="10" transform="rotate(59.41030602987597,32.15695282153084,174.79121428907203)" width="10" x="27.157" y="169.7912" /><rect height="10" transform="rotate(78.36601763228371,33.43714377935228,183.58628231303675)" width="10" x="28.4371" y="178.5863" /><rect height="10" transform="rotate(-75.27330338377807,34.52160343579851,193.075428870098)" width="10" x="29.5216" y="188.0754" /><rect height="10" transform="rotate(0.0,45.0,5.0)" width="10" x="40.0" y="0.0" /><rect height="10" transform="rotate(0.19946141713539056,45.01223999049434,15.004647055132843)" width="10" x="40.0122" y="10.0046" /><rect height="10" transform="rotate(-0.6523919730140904,44.980701181253664,24.97079664668733)" width="10" x="39.9807" y="19.9708" /><rect height="10" transform="rotate(-0.4735559337123701,45.03899298068094,35.045652929624325)" width="10" x="40.039" y="30.0457" /><rect height="10" transform="rotate(-0.03196095115895119,44.90234280249668,45.21203088580842)" width="10" x="39.9023" y="40.212" /><rect height="10" transform="rotate(-6.391561233215755,45.158254489528375,55.28087841182591)" width="10" x="40.1583" y="50.2809" /><rect height="10" transform="rotate(5.6323633536648545,45.05838053209395,65.22217812869295)" width="10" x="40.0584" y="60.2222" /><rect height="10" transform="rotate(13.491986547639389,45.449694955462945,75.55648551567454)" width="10" x="40.4497" y="70.5565" /><rect height="10" transform="rotate(-10.53342321233156,44.18241381999203,84.67612363586407)" width="10" x="39.1824" y="79.6761" /><rect height="10" transform="rotate(15.98237559826461,45.98514739250321,95.291024840062)" width="10" x="40.9851" y="90.291" /><rect height="10" transform="rotate(-18.719603852570522,45.537633566781686,104.29483513953296)" width="10" x="40.5376" y="99.2948" /><rect height="10" transform="rotate(41.76333207562864,44.851027939406976,114.82126421589884)" width="10" x="39.851" y="109.8213" /><rect height="10" transform="rotate(-22.846655816967694,44.90017649424207,124.35458785606501)" width="10" x="39.9002" y="119.3546" /><rect height="10" transform="rotate(-53.97248140523379,43.44327232784237,135.9015125677193)" width="10" x="38.4433" y="130.9015" /><rect height="10" transform="rotate(64.53786112579445,44.7706877538112,144.69262326428785)" width="10" x="39.7707" y="139.6926" /><rect height="10" transform="rotate(-70.65820225580185,44.38124732551302,156.201532376829)" width="10" x="39.3812" y="151.2015" /><rect height="10" transform="rotate(47.823129848819526,47.63851423150463,165.8083935519829)" width="10" x="42.6385" y="160.8084" /><rect height="10" transform="rotate(17.45188690974102,48.397803010436114,171.38438681190283)" width="10" x="43.3978" y="166.3844" /><rect height="10" transform="rotate(79.35601534853545,48.575690236373894,184.52420825119995)" width="10" x="43.5757" y="179.5242" /><rect height="10" transform="rotate(-52.42557299360943,40.73751387378358,190.5697461435994)" width="10" x="35.7375" y="185.5697" /><rect height="10" transform="rotate(-0.0,55.0,5.0)" width="10" x="50.0" y="0.0" /><rect height="10" transform="rotate(-0.34653116438657416,55.00707053705191,15.006097368503088)" width="10" x="50.0071" y="10.0061" /><rect height="10" transform="rotate(-0.2644587866931776,55.024575702169415,24.989210811611418)" width="10" x="50.0246" y="19.9892" /><rect height="10" transform="rotate(2.522878077789396,55.060776470783765,34.93702854600802)" width="10" x="50.0608" y="29.937" /><rect height="10" transform="rotate(2.176414923558356,55.04467551778818,44.80405151250781)" width="10" x="50.0447" y="39.8041" /><rect height="10" transform="rotate(-4.602315566453801,54.88209307750591,55.20038233584184)" width="10" x="49.8821" y="50.2004" /><rect height="10" transform="rotate(-9.97583681546651,54.64275439442464,65.48601890254378)" width="10" x="49.6428" y="60.486" /><rect height="10" transform="rotate(7.382883201587039,54.41362427113882,75.59116497779337)" width="10" x="49.4136" y="70.5912" /><rect height="10" transform="rotate(-9.127837811648565,54.33906831657367,85.57172336233569)" width="10" x="49.3391" y="80.5717" /><rect height="10" transform="rotate(12.570348668166224,55.73115263455122,93.96657325418191)" width="10" x="50.7312" y="88.9666" /><rect height="10" transform="rotate(-29.52212323625971,53.95091646279956,103.98597536365344)" width="10" x="48.9509" y="98.986" /><rect height="10" transform="rotate(-22.97250458044813,55.15891215163039,115.18674247780662)" width="10" x="50.1589" y="110.1867" /><rect height="10" transform="rotate(-33.40539054956929,53.447423295225924,126.78608599968244)" width="10" x="48.4474" y="121.7861" /><rect height="10" transform="rotate(26.846704504212674,55.49900990018687,133.75825607131722)" width="10" x="50.499" y="128.7583" /><rect height="10" transform="rotate(23.175439619537833,54.230968173235745,144.19938497598739)" width="10" x="49.231" y="139.1994" /><rect height="10" transform="rotate(67.91221898371656,53.74925078678958,156.485238462256)" width="10" x="48.7493" y="151.4852" /><rect height="10" transform="rotate(-52.0581296101718,54.25861575997394,165.8863479293489)" width="10" x="49.2586" y="160.8863" /><rect height="10" transform="rotate(-25.88790478768104,54.322315753454156,175.62419315790436)" width="10" x="49.3223" y="170.6242" /><rect height="10" transform="rotate(-26.50326880694453,53.612379427081,181.12816534100375)" width="10" x="48.6124" y="176.1282" /><rect height="10" transform="rotate(-111.89755711963006,50.856143371569026,191.72830319096178)" width="10" x="45.8561" y="186.7283" /><rect height="10" transform="rotate(0.0,65.0,5.0)" width="10" x="60.0" y="0.0" /><rect height="10" transform="rotate(0.28937430589615437,64.9807645444163,15.008336666090853)" width="10" x="59.9808" y="10.0083" /><rect height="10" transform="rotate(0.07078799705854957,64.94992323873458,25.062971553238683)" width="10" x="59.9499" y="20.063" /><rect height="10" transform="rotate(1.3234290459241194,64.92040452438307,35.07259123031108)" width="10" x="59.9204" y="30.0726" /><rect height="10" transform="rotate(2.0107678738301655,64.87182309644282,45.14268975296613)" width="10" x="59.8718" y="40.1427" /><rect height="10" transform="rotate(-6.255043681436441,65.16579367649344,54.89632237633937)" width="10" x="60.1658" y="49.8963" /><rect height="10" transform="rotate(3.002744543001996,64.99746886405258,65.31024480162131)" width="10" x="59.9975" y="60.3102" /><rect height="10" transform="rotate(-5.212944350616161,65.33394399085512,75.02398589115825)" width="10" x="60.3339" y="70.024" /><rect height="10" transform="rotate(-4.8759644073882855,64.87736047799459,84.15515758522814)" width="10" x="59.8774" y="79.1552" /><rect height="10" transform="rotate(-2.527232785008654,64.19275083367431,94.06504138397793)" width="10" x="59.1928" y="89.065" /><rect height="10" transform="rotate(28.806604688785775,65.38179383109384,104.9078521918065)" width="10" x="60.3818" y="99.9079" /><rect height="10" transform="rotate(36.056453730779154,63.992537954450015,116.40117831746616)" width="10" x="58.9925" y="111.4012" /><rect height="10" transform="rotate(-18.15547918562184,66.23779368464643,124.70275166853081)" width="10" x="61.2378" y="119.7028" /><rect height="10" transform="rotate(-55.74070673292172,66.35332628056028,134.71329581029667)" width="10" x="61.3533" y="129.7133" /><rect height="10" transform="rotate(3.7265706094406332,64.54540636814338,146.11272107835848)" width="10" x="59.5454" y="141.1127" /><rect height="10" transform="rotate(40.006936752553045,66.8719759419977,156.30534947114165)" width="10" x="61.872" y="151.3053" /><rect height="10" transform="rotate(54.67894815313368,66.96364824543932,167.90573627674632)" width="10" x="61.9636" y="162.9057" /><rect height="10" transform="rotate(-27.68884805965139,67.98347114860093,178.19330351981162)" width="10" x="62.9835" y="173.1933" /><rect height="10" transform="rotate(-10.668903771508704,66.28131637563439,187.3446070718392)" width="10" x="61.2813" y="182.3446" /><rect height="10" transform="rotate(-69.73218210543006,62.18544746618901,197.73001231423314)" width="10" x="57.1854" y="192.73" /><rect height="10" transform="rotate(-0.0,75.0,5.0)" width="10" x="70.0" y="0.0" /><rect height="10" transform="rotate(-0.48505273218377404,75.01839562430555,15.008187243717378)" width="10" x="70.0184" y="10.0082" /><rect height="10" transform="rotate(1.7909088834566307,74.97222845704891,25.065586601619604)" width="10" x="69.9722" y="20.0656" /><rect height="10" transform="rotate(-1.4865615623674913,74.91781524582484,35.076388795070265)" width="10" x="69.9178" y="30.0764" /><rect height="10" transform="rotate(-5.131077178456309,75.06396576936598,45.216607311241944)" width="10" x="70.064" y="40.2166" /><rect height="10" transform="rotate(-4.909275435246768,74.70412672490524,54.67582897217734)" width="10" x="69.7041" y="49.6758" /><rect height="10" transform="rotate(-6.789265118917835,74.84408029854943,65.35723150753199)" width="10" x="69.8441" y="60.3572" /><rect height="10" transform="rotate(12.432514091209615,74.86084800778737,74.54468991320233)" width="10" x="69.8608" y="69.5447" /><rect height="10" transform="rotate(13.068637825241082,75.08106121127292,84.18868581680087)" width="10" x="70.0811" y="79.1887" /><rect height="10" transform="rotate(22.068123668619034,74.69850599524996,94.78772106065846)" width="10" x="69.6985" y="89.7877" /><rect height="10" transform="rotate(-3.1445842761437035,75.27336849537855,104.11517548448545)" width="10" x="70.2734" y="99.1152" /><rect height="10" transform="rotate(-40.028358767265594,75.25337439570505,114.78421374892781)" width="10" x="70.2534" y="109.7842" /><rect height="10" transform="rotate(-1.3486590476004143,75.25254735598826,123.40008258226088)" width="10" x="70.2525" y="118.4001" /><rect height="10" transform="rotate(40.79201073309919,76.89268953417103,135.1338765816596)" width="10" x="71.8927" y="130.1339" /><rect height="10" transform="rotate(-20.13819191813744,73.7641544122868,146.91697753641472)" width="10" x="68.7642" y="141.917" /><rect height="10" transform="rotate(23.757775573217465,76.44660666281025,157.86104668175685)" width="10" x="71.4466" y="152.861" /><rect height="10" transform="rotate(36.93191471523157,76.86640475070216,162.8124413352684)" width="10" x="71.8664" y="157.8124" /><rect height="10" transform="rotate(-18.756438887203352,78.2991275280602,176.0094165690839)" width="10" x="73.2991" y="171.0094" /><rect height="10" transform="rotate(80.11090824006078,71.58139540161615,182.77869877199583)" width="10" x="66.5814" y="177.7787" /><rect height="10" transform="rotate(-35.46343856195268,72.27395686238515,191.96630701720173)" width="10" x="67.274" y="186.9663" /><rect height="10" transform="rotate(-0.0,85.0,5.0)" width="10" x="80.0" y="0.0" /><rect height="10" transform="rotate(-0.59825818588806,84.9791446496878,15.015310006312244)" width="10" x="79.9791" y="10.0153" /><rect height="10" transform="rotate(0.8843551388374623,84.93551065387302,24.965556757172067)" width="10" x="79.9355" y="19.9656" /><rect height="10" transform="rotate(0.6870456035070495,84.95952240210991,35.100747129214085)" width="10" x="79.9595" y="30.1007" /><rect height="10" transform="rotate(2.566889660289587,85.20438052921644,44.78695711134713)" width="10" x="80.2044" y="39.787" /><rect height="10" transform="rotate(-0.7242916479421645,84.92370402685543,54.679718337005106)" width="10" x="79.9237" y="49.6797" /><rect height="10" transform="rotate(7.651949795583829,85.28469382568049,64.88730154418987)" width="10" x="80.2847" y="59.8873" /><rect height="10" transform="rotate(2.483752497813817,84.8336114030325,75.34037936404735)" width="10" x="79.8336" y="70.3404" /><rect height="10" transform="rotate(-6.404424413132877,84.15308179108976,84.55495271517847)" width="10" x="79.1531" y="79.555" /><rect height="10" transform="rotate(28.53965111587062,85.95341673655878,95.12164354148645)" width="10" x="80.9534" y="90.1216" /><rect height="10" transform="rotate(31.170466460577213,83.87818583342218,104.7565543179637)" width="10" x="78.8782" y="99.7566" /><rect height="10" transform="rotate(-30.53342035695032,85.280029108425,115.3989073782346)" width="10" x="80.28" y="110.3989" /><rect height="10" transform="rotate(42.29447245176639,84.84116267329887,124.90658352197455)" width="10" x="79.8412" y="119.9066" /><rect height="10" transform="rotate(13.307861776133825,83.46365317480924,133.2325591971164)" width="10" x="78.4637" y="128.2326" /><rect height="10" transform="rotate(17.18309107806469,84.70980239135224,143.18696487737108)" width="10" x="79.7098" y="138.187" /><rect height="10" transform="rotate(29.799766244846737,87.76579521904866,155.79185550755128)" width="10" x="82.7658" y="150.7919" /><rect height="10" transform="rotate(-59.907242129653994,83.0402788252283,164.98080738296292)" width="10" x="78.0403" y="159.9808" /><rect height="10" transform="rotate(-7.014258790567586,88.00762739540268,174.60858671273863)" width="10" x="83.0076" y="169.6086" /><rect height="10" transform="rotate(21.64113321821781,83.92127261190909,181.55274129232419)" width="10" x="78.9213" y="176.5527" /><rect height="10" transform="rotate(-41.64458838321054,87.30047911762925,193.9979451714825)" width="10" x="82.3005" y="188.9979" /><rect height="10" transform="rotate(0.0,95.0,5.0)" width="10" x="90.0" y="0.0" /><rect height="10" transform="rotate(-0.1259127652800357,95.00657854890227,14.98995642411513)" width="10" x="90.0066" y="9.99" /><rect height="10" transform="rotate(0.9539074945266303,95.0546867705491,24.929616190754423)" width="10" x="90.0547" y="19.9296" /><rect height="10" transform="rotate(3.5193168932019603,95.00631729682026,34.9146133004461)" width="10" x="90.0063" y="29.9146" /><rect height="10" transform="rotate(-4.825715376998631,94.93741872250276,44.92100567627445)" width="10" x="89.9374" y="39.921" /><rect height="10" transform="rotate(0.9395658996547815,94.67063683786098,55.156236666658074)" width="10" x="89.6706" y="50.1562" /><rect height="10" transform="rotate(-4.5844353467532715,95.30674453663678,64.91027022119363)" width="10" x="90.3067" y="59.9103" /><rect height="10" transform="rotate(-4.8311579348845335,95.53988207048661,74.9018157647831)" width="10" x="90.5399" y="69.9018" /><rect height="10" transform="rotate(3.658370716898216,95.03664676117155,84.5455524492409)" width="10" x="90.0366" y="79.5456" /><rect height="10" transform="rotate(-10.515185046159242,96.06546934593784,94.67189896541484)" width="10" x="91.0655" y="89.6719" /><rect height="10" transform="rotate(-17.102370970612643,94.81462456886358,103.87414879330902)" width="10" x="89.8146" y="98.8741" /><rect height="10" transform="rotate(-26.157155320939292,95.77809240122774,115.4927093090299)" width="10" x="90.7781" y="110.4927" /><rect height="10" transform="rotate(45.605646446974696,95.25152436982509,126.33126713171026)" width="10" x="90.2515" y="121.3313" /><rect height="10" transform="rotate(-44.31061190163345,94.59106274348792,135.88424121770197)" width="10" x="89.5911" y="130.8842" /><rect height="10" transform="rotate(-6.42479861543612,92.96215509124224,147.406421159452)" width="10" x="87.9622" y="142.4064" /><rect height="10" transform="rotate(-66.06220295578335,96.5521153454777,157.80351152924982)" width="10" x="91.5521" y="152.8035" /><rect height="10" transform="rotate(41.422261942365516,97.28662609699884,163.45298000896386)" width="10" x="92.2866" y="158.453" /><rect height="10" transform="rotate(-55.29717548809169,92.12841037321,177.05029326996407)" width="10" x="87.1284" y="172.0503" /><rect height="10" transform="rotate(57.29558335226746,95.89168715985073,181.95160954216266)" width="10" x="90.8917" y="176.9516" /><rect height="10" transform="rotate(45.163260852006616,91.90976883393634,199.19969591779775)" width="10" x="86.9098" y="194.1997" /></svg>