<?xml version="1.0" encoding="utf-8" ?>
<svg id ="all" baseProfile="tiny" fill="none" height="100" stroke="black" stroke-opacity="1.0" stroke-width="0.5" version="1.2" width="100" xmlns="http://www.w3.org/2000/svg" xmlns:ev="http://www.w3.org/2001/xml-events" xmlns:xlink="http://www.w3.org/1999/xlink"><defs /><rect height="10" transform="rotate(-0.0,5.0,5.0)" width="10" x="0.0" y="0.0" /><rect height="10" transform="rotate(0.3719771082098121,4.973250140820057,15.01429054250318)" width="10" x="-0.0267" y="10.0143" /><rect height="10" transform="rotate(1.5630780035932226,5.09744150697216,24.920894419524622)" width="10" x="0.0974" y="19.9209" /><rect height="10" transform="rotate(-4.217143389177361,5.1553331291350215,35.311275323306766)" width="10" x="0.1553" y="30.3113" /><rect height="10" transform="rotate(-7.528992835802742,5.454864168106416,45.37556558975861)" width="10" x="0.4549" y="40.3756" /><rect height="10" transform="rotate(0.733747618826236,5.565233750229513,55.24220904806593)" width="10" x="0.5652" y="50.2422" /><rect height="10" transform="rotate(-16.554454221394515,3.8271782485828347,66.7639851557739)" width="10" x="-1.1728" y="61.764" /><rect height="10" transform="rotate(-5.541486283526746,5.330027141287863,73.5025559016018)" width="10" x="0.33" y="68.5026" /><rect height="10" transform="rotate(-28.765713123694876,7.376016651360368,87.78811182388698)" width="10" x="2.376" y="82.7881" /><rect height="10" transform="rotate(-16.5400916958129,8.633328156729815,97.42797574315911)" width="10" x="3.6333" y="92.428" /><rect height="10" transform="rotate(0.0,15.0,5.0)" width="10" x="10.0" y="0.0" /><rect height="10" transform="rotate(0.13034484369856578,15.036137125973223,15.018205091230445)" width="10" x="10.0361" y="10.0182" /><rect height="10" transform="rotate(-1.3608952532242018,15.075539629438316,25.01221215338531)" width="10" x="10.0755" y="20.0122" /><rect height="10" transform="rotate(-1.2644875273346317,14.606748363742613,34.9063061593414)" width="10" x="9.6067" y="29.9063" /><rect height="10" transform="rotate(-6.260414025100887,14.518578765332329,45.284059386147305)" width="10" x="9.5186" y="40.2841" /><rect height="10" transform="rotate(-1.0182703335603431,14.647683215241594,54.01466264623276)" width="10" x="9.6477" y="49.0147" /><rect height="10" transform="rotate(-6.786368275290502,16.268061947954262,63.493397714353954)" width="10" x="11.2681" y="58.4934" /><rect height="10" transform="rotate(10.22242671868247,14.340528496714121,77.17025628119899)" width="10" x="9.3405" y="72.1703" /><rect height="10" transform="rotate(-16.71997973340347,17.045062755555417,87.69980429309541)" width="10" x="12.0451" y="82.6998" /><rect height="10" transform="rotate(7.943487598350153,13.089534493032328,96.87046293410519)" width="10" x="8.0895" y="91.8705" /><rect height="10" transform="rotate(0.0,25.0,5.0)" width="10" x="20.0" y="0.0" /><rect height="10" transform="rotate(-0.3080385681011243,25.03995531125792,14.981953163008185)" width="10" x="20.04" y="9.982" /><rect height="10" transform="rotate(-1.4702152938053838,25.11510943295805,24.90706214415534)" width="10" x="20.1151" y="19.9071" /><rect height="10" transform="rotate(-2.5146885749038534,24.66429129739668,34.72303364586385)" width="10" x="19.6643" y="29.723" /><rect height="10" transform="rotate(5.81306768772481,24.242920847123884,45.34447681147347)" width="10" x="19.2429" y="40.3445" /><rect height="10" transform="rotate(0.3002852395262092,24.014739088113743,54.75212750013563)" width="10" x="19.0147" y="49.7521" /><rect height="10" transform="rotate(5.644687168315178,25.982826350927247,64.80881505058755)" width="10" x="20.9828" y="59.8088" /><rect height="10" transform="rotate(8.433794152653025,23.72625315676947,76.62510019763026)" width="10" x="18.7263" y="71.6251" /><rect height="10" transform="rotate(23.081058338224143,26.63637346813097,82.7194232778943)" width="10" x="21.6364" y="77.7194" /><rect height="10" transform="rotate(-27.078302053118925,24.186872129948835,92.96830085639522)" width="10" x="19.1869" y="87.9683" /><rect height="10" transform="rotate(-0.0,35.0,5.0)" width="10" x="30.0" y="0.0" /><rect height="10" transform="rotate(-0.45797179519337455,34.96856484673627,15.032749302287797)" width="10" x="29.9686" y="10.0327" /><rect height="10" transform="rotate(-0.10218531967764895,35.19127377012906,24.933458499221583)" width="10" x="30.1913" y="19.9335" /><rect height="10" transform="rotate(1.5646869855548549,35.18849255277531,35.27752306053267)" width="10" x="30.1885" y="30.2775" /><rect height="10" transform="rotate(-6.0533548702790565,35.119808292761164,44.299627780164265)" width="10" x="30.1198" y="39.2996" /><rect height="10" transform="rotate(1.5677840104803105,34.66007353262948,53.71309809203505)" width="10" x="29.6601" y="48.7131" /><rect height="10" transform="rotate(-2.6138599974494197,35.674606897699846,65.30412729854056)" width="10" x="30.6746" y="60.3041" /><rect height="10" transform="rotate(10.388068129234865,36.16317018755559,76.84606484241381)" width="10" x="31.1632" y="71.8461" /><rect height="10" transform="rotate(28.400547611278835,37.57164019330084,83.24228991522375)" width="10" x="32.5716" y="78.2423" /><rect height="10" transform="rotate(1.6475833567436822,32.1995291985829,99.12742901831585)" width="10" x="27.1995" y="94.1274" /><rect height="10" transform="rotate(-0.0,45.0,5.0)" width="10" x="40.0" y="0.0" /><rect height="10" transform="rotate(0.0739016558402821,44.9981283057793,14.944846801685827)" width="10" x="39.9981" y="9.9448" /><rect height="10" transform="rotate(-1.1384300629672945,45.15856472012951,25.154871501979244)" width="10" x="40.1586" y="20.1549" /><rect height="10" transform="rotate(3.360856379925606,45.27528514489234,35.47169986757224)" width="10" x="40.2753" y="30.4717" /><rect height="10" transform="rotate(5.006259719154743,45.30043735330863,45.435595208403875)" width="10" x="40.3004" y="40.4356" /><rect height="10" transform="rotate(5.69882629189543,45.48656124744168,54.195564644125184)" width="10" x="40.4866" y="49.1956" /><rect height="10" transform="rotate(-3.5399613716958767,45.769342049891115,63.4112966478356)" width="10" x="40.7693" y="58.4113" /><rect height="10" transform="rotate(-22.98231227816497,43.36106018823176,73.2880442451393)" width="10" x="38.3611" y="68.288" /><rect height="10" transform="rotate(-32.88209589181834,43.57105231513572,83.6693019113282)" width="10" x="38.5711" y="78.6693" /><rect height="10" transform="rotate(32.490464903531674,46.956077486083274,92.5758804478326)" width="10" x="41.9561" y="87.5759" /><rect height="10" transform="rotate(-0.0,55.0,5.0)" width="10" x="50.0" y="0.0" /><rect height="10" transform="rotate(-0.1778068549811766,54.92919844609541,14.946906010206177)" width="10" x="49.9292" y="9.9469" /><rect height="10" transform="rotate(-2.057673206487803,55.00307789537974,25.246436723805793)" width="10" x="50.0031" y="20.2464" /><rect height="10" transform="rotate(1.590880647746083,55.02450787416381,35.21675283469417)" width="10" x="50.0245" y="30.2168" /><rect height="10" transform="rotate(7.856222753942751,55.25470234746649,44.40528414785317)" width="10" x="50.2547" y="39.4053" /><rect height="10" transform="rotate(9.661083069814481,55.74612981370518,53.832564291115524)" width="10" x="50.7461" y="48.8326" /><rect height="10" transform="rotate(-0.3384766772600877,55.84634740865404,63.571850278564014)" width="10" x="50.8463" y="58.5719" /><rect height="10" transform="rotate(24.23456038235778,55.39312825589946,76.36185355396621)" width="10" x="50.3931" y="71.3619" /><rect height="10" transform="rotate(2.0424032462393447,56.60589727814909,88.15280200081725)" width="10" x="51.6059" y="83.1528" /><rect height="10" transform="rotate(-36.85448300208849,53.58486542103867,99.17467004549289)" width="10" x="48.5849" y="94.1747" /><rect height="10" transform="rotate(-0.0,65.0,5.0)" width="10" x="60.0" y="0.0" /><rect height="10" transform="rotate(-0.2337397144108328,64.94256869522448,14.921897209381363)" width="10" x="59.9426" y="9.9219" /><rect height="10" transform="rotate(-1.7741001477561131,64.76424911262288,24.816867826254988)" width="10" x="59.7642" y="19.8169" /><rect height="10" transform="rotate(0.7631124407808392,65.07793933267592,34.921762130190054)" width="10" x="60.0779" y="29.9218" /><rect height="10" transform="rotate(-8.359587115220043,65.4778220970401,45.65390019997129)" width="10" x="60.4778" y="40.6539" /><rect height="10" transform="rotate(-1.6080218869220655,64.77988674595423,54.5211749467068)" width="10" x="59.7799" y="49.5212" /><rect height="10" transform="rotate(10.834599469886395,66.42847967859947,66.48078508930439)" width="10" x="61.4285" y="61.4808" /><rect height="10" transform="rotate(16.666940889336495,66.81477751825874,73.55872363643978)" width="10" x="61.8148" y="68.5587" /><rect height="10" transform="rotate(20.673537402887444,67.59361713201008,84.80385314940847)" width="10" x="62.5936" y="79.8039" /><rect height="10" transform="rotate(14.71730124570649,67.50856296871794,93.7256265141035)" width="10" x="62.5086" y="88.7256" /><rect height="10" transform="rotate(0.0,75.0,5.0)" width="10" x="70.0" y="0.0" /><rect height="10" transform="rotate(0.6337766992970701,75.08381706586619,15.019292205616404)" width="10" x="70.0838" y="10.0193" /><rect height="10" transform="rotate(-1.774382346437325,74.88834125417729,25.263811894164323)" width="10" x="69.8883" y="20.2638" /><rect height="10" transform="rotate(5.28948096224004,75.18402251106697,34.546425248335275)" width="10" x="70.184" y="29.5464" /><rect height="10" transform="rotate(-2.2135043716826606,75.90570586181119,45.93007364093305)" width="10" x="70.9057" y="40.9301" /><rect height="10" transform="rotate(8.867930624808153,75.1138439898745,54.49035892998904)" width="10" x="70.1138" y="49.4904" /><rect height="10" transform="rotate(-5.226579930308684,74.6728538798497,66.42552290462837)" width="10" x="69.6729" y="61.4255" /><rect height="10" transform="rotate(-24.761013889374702,77.51654345900691,77.48443847080375)" width="10" x="72.5165" y="72.4844" /><rect height="10" transform="rotate(-5.947085571246198,74.84907014026159,85.14736913174612)" width="10" x="69.8491" y="80.1474" /><rect height="10" transform="rotate(-4.213243627952779,77.91787529332483,98.22854317101742)" width="10" x="72.9179" y="93.2285" /><rect height="10" transform="rotate(-0.0,85.0,5.0)" width="10" x="80.0" y="0.0" /><rect height="10" transform="rotate(-0.795195429751294,84.91806613406862,14.915028773439339)" width="10" x="79.9181" y="9.915" /><rect height="10" transform="rotate(-2.6982744659265983,85.15022048460199,24.725257939286415)" width="10" x="80.1502" y="19.7253" /><rect height="10" transform="rotate(0.11111933168323329,84.86330967303533,35.186693726525675)" width="10" x="79.8633" y="30.1867" /><rect height="10" transform="rotate(-5.592127650420845,84.52125413495745,45.50276989871811)" width="10" x="79.5213" y="40.5028" /><rect height="10" transform="rotate(9.25706784810982,84.20422864157199,55.830115763276666)" width="10" x="79.2042" y="50.8301" /><rect height="10" transform="rotate(16.441157766300886,85.97711993755584,65.24578066316306)" width="10" x="80.9771" y="60.2458" /><rect height="10" transform="rotate(-13.707728979824836,82.65074924268013,76.93507873340315)" width="10" x="77.6507" y="71.9351" /><rect height="10" transform="rotate(-31.778616590872694,83.4037314838096,86.39074367027457)" width="10" x="78.4037" y="81.3907" /><rect height="10" transform="rotate(31.340123071655665,85.49135760059146,92.5678278089798)" width="10" x="80.4914" y="87.5678" /><rect height="10" transform="rotate(0.0,95.0,5.0)" width="10" x="90.0" y="0.0" /><rect height="10" transform="rotate(-0.01217622616642281,95.00393076922705,14.975220948273147)" width="10" x="90.0039" y="9.9752" /><rect height="10" transform="rotate(-0.6790017761937887,94.92999698234014,25.133380379057144)" width="10" x="89.93" y="20.1334" /><rect height="10" transform="rotate(2.5931846554450595,94.56508782875424,35.41284337397331)" width="10" x="89.5651" y="30.4128" /><rect height="10" transform="rotate(8.51474335714789,94.2884456289536,44.193199019488546)" width="10" x="89.2884" y="39.1932" /><rect height="10" transform="rotate(8.324812672264255,95.00541078305298,56.3967770133887)" width="10" x="90.0054" y="51.3968" /><rect height="10" transform="rotate(-0.4969639681998322,95.37169000586498,64.40746865042178)" width="10" x="90.3717" y="59.4075" /><rect height="10" transform="rotate(17.33640271491757,93.16152770068089,74.67727004357161)" width="10" x="88.1615" y="69.6773" /><rect height="10" transform="rotate(0.5877380216473116,97.56362595356642,86.51746463168753)" width="10" x="92.5636" y="81.5175" /><rect height="10" transform="rotate(-7.638843958877101,98.9916169546254,98.37552772092103)" width="10" x="93.9916" y="93.3755" /></svg>