<?xml version="1.0" encoding="utf-8" ?>
<svg id="all" baseProfile="tiny" fill="none" height="100" stroke="black" stroke-opacity="1.0" stroke-width="0.5" version="1.2" width="100" xmlns="http://www.w3.org/2000/svg" xmlns:ev="http://www.w3.org/2001/xml-events" xmlns:xlink="http://www.w3.org/1999/xlink"><defs /><rect height="10" width="10" x="0.0" y="0.0" /><rect height="10" width="10" x="-0.0064" y="10.0026" /><rect height="10" width="10" x="0.0098" y="19.9412" /><rect height="10" width="10" x="0.103" y="30.223" /><rect height="10" width="10" x="-0.0775" y="39.5559" /><rect height="10" width="10" x="0.6933" y="49.7789" /><rect height="10" width="10" x="0.7098" y="59.9454" /><rect height="10" width="10" x="-2.2754" y="71.012" /><rect height="10" width="10" x="-2.2242" y="78.5503" /><rect height="10" width="10" x="0.7273" y="85.9752" /><rect height="10" width="10" x="10.0" y="0.0" /><rect height="10" width="10" x="10.0292" y="10.0529" /><rect height="10" width="10" x="9.9029" y="19.8585" /><rect height="10" width="10" x="10.0598" y="30.4608" /><rect height="10" width="10" x="10.1701" y="39.6782" /><rect height="10" width="10" x="9.7528" y="50.9374" /><rect height="10" width="10" x="9.6832" y="58.642" /><rect height="10" width="10" x="11.3138" y="69.3155" /><rect height="10" width="10" x="7.3182" y="80.9934" /><rect height="10" width="10" x="10.1048" y="91.8473" /><rect height="10" width="10" x="20.0" y="0.0" /><rect height="10" width="10" x="20.0153" y="10.0382" /><rect height="10" width="10" x="20.0211" y="20.1321" /><rect height="10" width="10" x="20.3059" y="29.7556" /><rect height="10" width="10" x="19.6912" y="40.245" /><rect height="10" width="10" x="20.3919" y="48.9213" /><rect height="10" width="10" x="21.2131" y="59.8574" /><rect height="10" width="10" x="19.0088" y="72.3098" /><rect height="10" width="10" x="22.3977" y="77.6504" /><rect height="10" width="10" x="17.6288" y="87.3294" /><rect height="10" width="10" x="30.0" y="0.0" /><rect height="10" width="10" x="30.0471" y="10.0157" /><rect height="10" width="10" x="30.0109" y="19.8973" /><rect height="10" width="10" x="30.3844" y="30.1252" /><rect height="10" width="10" x="30.5697" y="40.1623" /><rect height="10" width="10" x="30.3925" y="51.28" /><rect height="10" width="10" x="28.8853" y="58.1479" /><rect height="10" width="10" x="28.5177" y="68.3173" /><rect height="10" width="10" x="28.7623" y="79.4517" /><rect height="10" width="10" x="27.1836" y="92.4615" /><rect height="10" width="10" x="40.0" y="0.0" /><rect height="10" width="10" x="39.9752" y="10.07" /><rect height="10" width="10" x="40.1033" y="19.7631" /><rect height="10" width="10" x="39.7046" y="29.7506" /><rect height="10" width="10" x="39.7635" y="39.7649" /><rect height="10" width="10" x="40.236" y="49.1442" /><rect height="10" width="10" x="38.2508" y="59.3909" /><rect height="10" width="10" x="37.5504" y="71.7928" /><rect height="10" width="10" x="42.5232" y="77.3911" /><rect height="10" width="10" x="36.2017" y="86.0312" /><rect height="10" width="10" x="50.0" y="0.0" /><rect height="10" width="10" x="49.9886" y="9.9503" /><rect height="10" width="10" x="50.1811" y="19.9089" /><rect height="10" width="10" x="49.5333" y="29.6757" /><rect height="10" width="10" x="50.2562" y="39.9218" /><rect height="10" width="10" x="49.1687" y="50.8438" /><rect height="10" width="10" x="50.8419" y="61.3007" /><rect height="10" width="10" x="50.6857" y="70.8173" /><rect height="10" width="10" x="47.0216" y="81.2649" /><rect height="10" width="10" x="51.1349" y="91.8057" /><rect height="10" width="10" x="60.0" y="0.0" /><rect height="10" width="10" x="60.0209" y="10.0083" /><rect height="10" width="10" x="60.1998" y="20.0809" /><rect height="10" width="10" x="59.5842" y="30.4301" /><rect height="10" width="10" x="60.3187" y="40.9146" /><rect height="10" width="10" x="59.3642" y="50.1995" /><rect height="10" width="10" x="58.493" y="59.0882" /><rect height="10" width="10" x="61.0697" y="69.2466" /><rect height="10" width="10" x="62.2229" y="82.3981" /><rect height="10" width="10" x="60.5449" y="87.0731" /><rect height="10" width="10" x="70.0" y="0.0" /><rect height="10" width="10" x="69.9378" y="9.9987" /><rect height="10" width="10" x="69.9608" y="20.2007" /><rect height="10" width="10" x="70.2838" y="30.0655" /><rect height="10" width="10" x="70.354" y="39.8854" /><rect height="10" width="10" x="70.4898" y="50.4957" /><rect height="10" width="10" x="70.5729" y="61.7675" /><rect height="10" width="10" x="71.0829" y="69.2448" /><rect height="10" width="10" x="68.9063" y="78.7067" /><rect height="10" width="10" x="71.1573" y="87.3771" /><rect height="10" width="10" x="80.0" y="0.0" /><rect height="10" width="10" x="79.9519" y="10.0289" /><rect height="10" width="10" x="79.8154" y="19.8097" /><rect height="10" width="10" x="80.5246" y="30.2723" /><rect height="10" width="10" x="79.6075" y="39.8266" /><rect height="10" width="10" x="80.4734" y="50.0898" /><rect height="10" width="10" x="81.3095" y="61.6338" /><rect height="10" width="10" x="80.1054" y="70.5498" /><rect height="10" width="10" x="81.5816" y="79.5573" /><rect height="10" width="10" x="79.7556" y="89.5534" /><rect height="10" width="10" x="90.0" y="0.0" /><rect height="10" width="10" x="89.9869" y="9.9813" /><rect height="10" width="10" x="90.0129" y="20.0835" /><rect height="10" width="10" x="90.5102" y="29.7885" /><rect height="10" width="10" x="89.7957" y="39.9827" /><rect height="10" width="10" x="89.1349" y="49.441" /><rect height="10" width="10" x="88.4274" y="58.9858" /><rect height="10" width="10" x="89.2096" y="70.8792" /><rect height="10" width="10" x="88.1269" y="78.428" /><rect height="10" width="10" x="90.7236" y="85.747" /></svg>