<?xml version="1.0" encoding="utf-8" ?>
<svg baseProfile="tiny" fill="none" height="100" stroke="black" stroke-opacity="1.0" stroke-width="0.5" version="1.2" width="100" xmlns="http://www.w3.org/2000/svg" xmlns:ev="http://www.w3.org/2001/xml-events" xmlns:xlink="http://www.w3.org/1999/xlink"><defs /><rect height="10" transform="rotate(-0.0,5.0,5.0)" width="10" x="0.0" y="0.0" /><rect height="10" transform="rotate(0.13457699155943548,5.001509384282808,14.990834473141367)" width="10" x="0.0015" y="9.9908" /><rect height="10" transform="rotate(0.1645790381776123,4.978632997919295,25.01308562964256)" width="10" x="-0.0214" y="20.0131" /><rect height="10" transform="rotate(-0.679900380860654,4.948403214403079,34.8877137714187)" width="10" x="-0.0516" y="29.8877" /><rect height="10" transform="rotate(-1.9009527237716917,5.121914013955184,44.902100472945584)" width="10" x="0.1219" y="39.9021" /><rect height="10" transform="rotate(-0.63046624718792,5.309053575711899,54.99494138347905)" width="10" x="0.3091" y="49.9949" /><rect height="10" transform="rotate(9.12918534854469,5.108454698719579,64.96612976906638)" width="10" x="0.1085" y="59.9661" /><rect height="10" transform="rotate(11.304905118743902,4.900504173896377,74.89383317711409)" width="10" x="-0.0995" y="69.8938" /><rect height="10" transform="rotate(-15.710162354290178,4.312293659107619,85.67771548014177)" width="10" x="-0.6877" y="80.6777" /><rect height="10" transform="rotate(16.703589842517008,5.853763987659281,95.010930424055)" width="10" x="0.8538" y="90.0109" /><rect height="10" transform="rotate(7.71273435617863,4.01227683123484,104.34653101783891)" width="10" x="-0.9877" y="99.3465" /><rect height="10" transform="rotate(37.239102432780825,4.007449840820223,114.49951421141677)" width="10" x="-0.9926" y="109.4995" /><rect height="10" transform="rotate(-1.0776497640896743,5.228031200766337,123.48323494903175)" width="10" x="0.228" y="118.4832" /><rect height="10" transform="rotate(-13.612158743643802,3.418208021083532,133.2929804713774)" width="10" x="-1.5818" y="128.293" /><rect height="10" transform="rotate(-46.27948288787028,3.868166389091007,145.17601927456482)" width="10" x="-1.1318" y="140.176" /><rect height="10" transform="rotate(-16.557058522630697,5.832018544055892,152.5530545755249)" width="10" x="0.832" y="147.5531" /><rect height="10" transform="rotate(29.304383686684655,5.913316491373711,166.10643365650068)" width="10" x="0.9133" y="161.1064" /><rect height="10" transform="rotate(-60.52200045627474,4.298146764549756,175.4269361114631)" width="10" x="-0.7019" y="170.4269" /><rect height="10" transform="rotate(-84.94083309042766,6.0205488953621575,186.0516030517783)" width="10" x="1.0205" y="181.0516" /><rect height="10" transform="rotate(65.51023844449654,3.9451952714054146,198.8838545737662)" width="10" x="-1.0548" y="193.8839" /><rect height="10" transform="rotate(-0.0,15.0,5.0)" width="10" x="10.0" y="0.0" /><rect height="10" transform="rotate(0.08051654509203934,14.997503895400476,15.003664919383633)" width="10" x="9.9975" y="10.0037" /><rect height="10" transform="rotate(-0.44615308458171843,15.048197027225296,24.99612252359385)" width="10" x="10.0482" y="19.9961" /><rect height="10" transform="rotate(-2.834532716683476,14.897608149089665,35.05640009870467)" width="10" x="9.8976" y="30.0564" /><rect height="10" transform="rotate(-2.849234119108743,14.961883879181453,44.91280742667355)" width="10" x="9.9619" y="39.9128" /><rect height="10" transform="rotate(0.8386560278440272,14.958020274449659,54.831726473751665)" width="10" x="9.958" y="49.8317" /><rect height="10" transform="rotate(-6.084819555096984,15.264774367146892,64.64606088429788)" width="10" x="10.2648" y="59.6461" /><rect height="10" transform="rotate(-10.734191807519808,14.84340031466992,74.64076439339546)" width="10" x="9.8434" y="69.6408" /><rect height="10" transform="rotate(-9.677781647364219,15.634542249448433,84.22132425440662)" width="10" x="10.6345" y="79.2213" /><rect height="10" transform="rotate(-3.2742727105065654,14.298597296032112,95.42757412048486)" width="10" x="9.2986" y="90.4276" /><rect height="10" transform="rotate(22.40204677053902,13.804194118887738,105.4205399366845)" width="10" x="8.8042" y="100.4205" /><rect height="10" transform="rotate(32.38241699106628,15.385568370754262,113.95527014405569)" width="10" x="10.3856" y="108.9553" /><rect height="10" transform="rotate(6.359696328877316,14.922859468351204,123.69473927399635)" width="10" x="9.9229" y="118.6947" /><rect height="10" transform="rotate(-0.09265957682011354,13.168804892902468,135.98974841506322)" width="10" x="8.1688" y="130.9897" /><rect height="10" transform="rotate(-22.69873950275099,15.28872223086458,147.0375880167609)" width="10" x="10.2887" y="142.0376" /><rect height="10" transform="rotate(18.462235621723554,17.454892369171215,157.54321018306334)" width="10" x="12.4549" y="152.5432" /><rect height="10" transform="rotate(21.097032959246693,11.94389035779306,166.90684009052362)" width="10" x="6.9439" y="161.9068" /><rect height="10" transform="rotate(84.83409191796774,17.887979397006657,173.1708619807042)" width="10" x="12.888" y="168.1709" /><rect height="10" transform="rotate(-56.58385420903948,15.658249058529815,185.77184772256876)" width="10" x="10.6582" y="180.7718" /><rect height="10" transform="rotate(-79.6055766506876,13.725759577428482,192.25346934016113)" width="10" x="8.7258" y="187.2535" /><rect height="10" transform="rotate(0.0,25.0,5.0)" width="10" x="20.0" y="0.0" /><rect height="10" transform="rotate(-0.10158340290889907,25.010549899942305,14.996427776318955)" width="10" x="20.0105" y="9.9964" /><rect height="10" transform="rotate(0.1966743615336612,24.967518908096665,24.99420572712766)" width="10" x="19.9675" y="19.9942" /><rect height="10" transform="rotate(-0.2338595508458184,25.043679593200515,34.89419914050439)" width="10" x="20.0437" y="29.8942" /><rect height="10" transform="rotate(-2.017111781195425,24.956041786310404,45.13691693986201)" width="10" x="19.956" y="40.1369" /><rect height="10" transform="rotate(-4.264133202626248,25.10492672420289,55.199417675472574)" width="10" x="20.1049" y="50.1994" /><rect height="10" transform="rotate(9.59780905604517,25.296682570842346,64.67399770821578)" width="10" x="20.2967" y="59.674" /><rect height="10" transform="rotate(2.4592160403778918,25.528645240310947,75.05670507987988)" width="10" x="20.5286" y="70.0567" /><rect height="10" transform="rotate(-12.304586854236778,25.00027824947996,85.58357038393387)" width="10" x="20.0003" y="80.5836" /><rect height="10" transform="rotate(-8.909941301102993,24.713944484485165,94.68967115364396)" width="10" x="19.7139" y="89.6897" /><rect height="10" transform="rotate(12.470460010659899,26.004307387836896,104.57413019003218)" width="10" x="21.0043" y="99.5741" /><rect height="10" transform="rotate(-36.27776613314741,25.13738015757941,114.44065706249678)" width="10" x="20.1374" y="109.4407" /><rect height="10" transform="rotate(47.37341133243073,25.270895818944624,123.7505984762217)" width="10" x="20.2709" y="118.7506" /><rect height="10" transform="rotate(-18.509754225299787,24.490829610775183,135.52994232214243)" width="10" x="19.4908" y="130.5299" /><rect height="10" transform="rotate(64.02450651507299,26.25485737177305,146.9972854549373)" width="10" x="21.2549" y="141.9973" /><rect height="10" transform="rotate(47.67869995049383,27.094471786696698,156.07518194647258)" width="10" x="22.0945" y="151.0752" /><rect height="10" transform="rotate(68.63125317490211,22.905664291477038,165.5806594211509)" width="10" x="17.9057" y="160.5807" /><rect height="10" transform="rotate(84.76263999498353,25.863826243759004,172.77918851080943)" width="10" x="20.8638" y="167.7792" /><rect height="10" transform="rotate(29.94766967117093,21.10530442833914,187.97291207197688)" width="10" x="16.1053" y="182.9729" /><rect height="10" transform="rotate(120.86144539198058,28.832121756707622,198.8763840280452)" width="10" x="23.8321" y="193.8764" /><rect height="10" transform="rotate(-0.0,35.0,5.0)" width="10" x="30.0" y="0.0" /><rect height="10" transform="rotate(0.11918992958368388,34.98388273365332,15.004902407296827)" width="10" x="29.9839" y="10.0049" /><rect height="10" transform="rotate(-0.16550129567579414,35.000921003144406,24.993244497936967)" width="10" x="30.0009" y="19.9932" /><rect height="10" transform="rotate(0.13432401302672434,35.06207076997913,35.087433579024164)" width="10" x="30.0621" y="30.0874" /><rect height="10" transform="rotate(-5.117983022715654,34.88539976341443,44.98471108750516)" width="10" x="29.8854" y="39.9847" /><rect height="10" transform="rotate(8.353249402371471,34.76375403570175,54.8687290898994)" width="10" x="29.7638" y="49.8687" /><rect height="10" transform="rotate(-4.4556058096342355,35.367045927226094,65.18292407038311)" width="10" x="30.367" y="60.1829" /><rect height="10" transform="rotate(3.408752940511395,35.24265832065869,74.90899137019888)" width="10" x="30.2427" y="69.909" /><rect height="10" transform="rotate(9.410075760047837,35.34839477911231,84.211868854067)" width="10" x="30.3484" y="79.2119" /><rect height="10" transform="rotate(-11.017692269453725,35.11698968262782,96.02676346049148)" width="10" x="30.117" y="91.0268" /><rect height="10" transform="rotate(26.037095751564987,36.198375874094346,105.56788839744753)" width="10" x="31.1984" y="100.5679" /><rect height="10" transform="rotate(-35.340448870078845,33.49606790877263,114.91734974149384)" width="10" x="28.4961" y="109.9173" /><rect height="10" transform="rotate(-10.319583777711664,34.37979547641787,126.14046528217065)" width="10" x="29.3798" y="121.1405" /><rect height="10" transform="rotate(8.88107186617581,33.85343591122964,136.50085276354025)" width="10" x="28.8534" y="131.5009" /><rect height="10" transform="rotate(47.80222733407967,36.384404324143375,146.43735333180535)" width="10" x="31.3844" y="141.4374" /><rect height="10" transform="rotate(-10.152370270031083,35.19543394066784,156.74697804464938)" width="10" x="30.1954" y="151.747" /><rect height="10" transform="rotate(-23.019302858873825,36.486375035370486,166.65117590078472)" width="10" x="31.4864" y="161.6512" /><rect height="10" transform="rotate(-34.59588350941449,38.437007494193914,176.37250306454706)" width="10" x="33.437" y="171.3725" /><rect height="10" transform="rotate(-22.412920840511678,35.00108512862015,184.79522969621877)" width="10" x="30.0011" y="179.7952" /><rect height="10" transform="rotate(60.20562639380887,31.13000069178112,197.9470347834862)" width="10" x="26.13" y="192.947" /><rect height="10" transform="rotate(0.0,45.0,5.0)" width="10" x="40.0" y="0.0" /><rect height="10" transform="rotate(0.164646471027174,45.003633556633744,14.993363879612149)" width="10" x="40.0036" y="9.9934" /><rect height="10" transform="rotate(-1.1752527496117218,45.02164592434879,24.955781691137002)" width="10" x="40.0216" y="19.9558" /><rect height="10" transform="rotate(-0.7399630695109163,44.932767638401906,34.88897222223326)" width="10" x="39.9328" y="29.889" /><rect height="10" transform="rotate(-0.7101456915994464,45.12613006698294,44.81119232682677)" width="10" x="40.1261" y="39.8112" /><rect height="10" transform="rotate(-0.6583903030494402,44.72653873773485,54.759749467777894)" width="10" x="39.7265" y="49.7597" /><rect height="10" transform="rotate(-7.405224390843358,44.8080537557131,65.18747250277384)" width="10" x="39.8081" y="60.1875" /><rect height="10" transform="rotate(-7.2046960144801035,44.47197925672086,75.4777907691386)" width="10" x="39.472" y="70.4778" /><rect height="10" transform="rotate(-8.434814529934108,45.45444931894907,84.77491072516521)" width="10" x="40.4544" y="79.7749" /><rect height="10" transform="rotate(13.540646438315369,44.376823929939754,94.46597038703658)" width="10" x="39.3768" y="89.466" /><rect height="10" transform="rotate(-15.209107117173575,44.55280340205752,103.94057925133089)" width="10" x="39.5528" y="98.9406" /><rect height="10" transform="rotate(-3.063944535718057,44.48837319946355,115.47135552159095)" width="10" x="39.4884" y="110.4714" /><rect height="10" transform="rotate(-47.7692589311145,46.129653634070294,126.69314984147707)" width="10" x="41.1297" y="121.6931" /><rect height="10" transform="rotate(-51.379092390352625,46.19692419849458,136.3530964639143)" width="10" x="41.1969" y="131.3531" /><rect height="10" transform="rotate(-23.101923061695178,44.47832453395592,145.42339356771663)" width="10" x="39.4783" y="140.4234" /><rect height="10" transform="rotate(-67.32831974387082,47.877162981494855,157.887115824314)" width="10" x="42.8772" y="152.8871" /><rect height="10" transform="rotate(-25.251387004605682,47.298572231965814,163.23047604299407)" width="10" x="42.2986" y="158.2305" /><rect height="10" transform="rotate(-80.61018295504955,47.07144521806051,172.55708474487975)" width="10" x="42.0714" y="167.5571" /><rect height="10" transform="rotate(106.4390750171254,41.93445965758807,187.0197851706299)" width="10" x="36.9345" y="182.0198" /><rect height="10" transform="rotate(-4.862733417090824,47.54752424345149,196.15197783483487)" width="10" x="42.5475" y="191.152" /><rect height="10" transform="rotate(0.0,55.0,5.0)" width="10" x="50.0" y="0.0" /><rect height="10" transform="rotate(0.26674143984436793,55.0111251963395,14.992200767813326)" width="10" x="50.0111" y="9.9922" /><rect height="10" transform="rotate(0.4521966532214494,54.94635363760296,25.05728750632678)" width="10" x="49.9464" y="20.0573" /><rect height="10" transform="rotate(-2.4264095156632726,55.0506837690039,35.1298280922101)" width="10" x="50.0507" y="30.1298" /><rect height="10" transform="rotate(2.61406157801979,54.963846111763495,45.03609848783015)" width="10" x="49.9638" y="40.0361" /><rect height="10" transform="rotate(6.144512528703074,54.75716392222743,55.081291970327754)" width="10" x="49.7572" y="50.0813" /><rect height="10" transform="rotate(-7.739615417644595,54.76214695838192,64.66771310483793)" width="10" x="49.7621" y="59.6677" /><rect height="10" transform="rotate(-2.109516566930295,55.40347345471837,75.10958956772932)" width="10" x="50.4035" y="70.1096" /><rect height="10" transform="rotate(12.147046497100762,55.478123708652475,85.40804284245277)" width="10" x="50.4781" y="80.408" /><rect height="10" transform="rotate(-26.061634314873498,54.74755135280642,95.78315130816554)" width="10" x="49.7476" y="90.7832" /><rect height="10" transform="rotate(-18.57450822115138,55.262849564835946,106.17708126749109)" width="10" x="50.2628" y="101.1771" /><rect height="10" transform="rotate(-24.437058774177537,54.974232947700145,115.52581895456457)" width="10" x="49.9742" y="110.5258" /><rect height="10" transform="rotate(-40.71156627515468,53.82799256699471,125.29907876812462)" width="10" x="48.828" y="120.2991" /><rect height="10" transform="rotate(33.97228229951786,52.95713429515224,136.03031195781637)" width="10" x="47.9571" y="131.0303" /><rect height="10" transform="rotate(37.3347272878921,53.35314956783746,146.7920706690833)" width="10" x="48.3531" y="141.7921" /><rect height="10" transform="rotate(26.540529795196562,53.178347911230134,154.12634481566536)" width="10" x="48.1783" y="149.1263" /><rect height="10" transform="rotate(-53.41044166233814,55.204803771163746,165.0732969642975)" width="10" x="50.2048" y="160.0733" /><rect height="10" transform="rotate(94.69049820974338,52.633960930028984,176.60240004251938)" width="10" x="47.634" y="171.6024" /><rect height="10" transform="rotate(-56.43613205071217,58.55171749462675,187.60277752410363)" width="10" x="53.5517" y="182.6028" /><rect height="10" transform="rotate(-61.99342074362739,57.3589069315954,194.32186978467846)" width="10" x="52.3589" y="189.3219" /><rect height="10" transform="rotate(-0.0,65.0,5.0)" width="10" x="60.0" y="0.0" /><rect height="10" transform="rotate(0.36550560143687993,64.9833445646668,15.009452347486343)" width="10" x="59.9833" y="10.0095" /><rect height="10" transform="rotate(0.8900074545703869,65.0331827950708,24.940050747324197)" width="10" x="60.0332" y="19.9401" /><rect height="10" transform="rotate(1.8856821556940973,65.01194256010757,35.06901415555858)" width="10" x="60.0119" y="30.069" /><rect height="10" transform="rotate(-1.6570545169479616,64.8114079735876,45.03493198445034)" width="10" x="59.8114" y="40.0349" /><rect height="10" transform="rotate(-9.035217704482234,65.29789803234647,54.67752083117242)" width="10" x="60.2979" y="49.6775" /><rect height="10" transform="rotate(0.3803760292864752,65.30563195079803,64.534770590052)" width="10" x="60.3056" y="59.5348" /><rect height="10" transform="rotate(1.5253477269655482,65.4603133956985,75.06703024223594)" width="10" x="60.4603" y="70.067" /><rect height="10" transform="rotate(10.339672682244476,64.15740104304518,85.7692424471429)" width="10" x="59.1574" y="80.7692" /><rect height="10" transform="rotate(-21.448483847647044,64.74095134767707,94.6624034477379)" width="10" x="59.741" y="89.6624" /><rect height="10" transform="rotate(13.068638505671796,65.57731105229354,104.05813775372286)" width="10" x="60.5773" y="99.0581" /><rect height="10" transform="rotate(26.870873255643986,64.1697401999925,115.32729910766508)" width="10" x="59.1697" y="110.3273" /><rect height="10" transform="rotate(-12.284957162658847,66.68357291817057,124.67382015095224)" width="10" x="61.6836" y="119.6738" /><rect height="10" transform="rotate(32.21236419667127,66.77378728923452,133.81732861892368)" width="10" x="61.7738" y="128.8173" /><rect height="10" transform="rotate(9.569386439303896,65.08949889558818,147.23589850413825)" width="10" x="60.0895" y="142.2359" /><rect height="10" transform="rotate(35.3042584232292,63.90586719711024,156.83578726179746)" width="10" x="58.9059" y="151.8358" /><rect height="10" transform="rotate(-47.82427112502208,67.46371462755606,167.8830966006133)" width="10" x="62.4637" y="162.8831" /><rect height="10" transform="rotate(-45.75496085713778,62.064744052327946,174.98076566219714)" width="10" x="57.0647" y="169.9808" /><rect height="10" transform="rotate(58.68956129540421,66.59274829052968,186.615978499276)" width="10" x="61.5927" y="181.616" /><rect height="10" transform="rotate(17.385202852747668,64.06188581651544,199.60625558898258)" width="10" x="59.0619" y="194.6063" /><rect height="10" transform="rotate(-0.0,75.0,5.0)" width="10" x="70.0" y="0.0" /><rect height="10" transform="rotate(-0.44699962627252116,75.01705090265636,14.993452391844864)" width="10" x="70.0171" y="9.9935" /><rect height="10" transform="rotate(-1.1530587298741375,75.02753611001587,24.948040653430738)" width="10" x="70.0275" y="19.948" /><rect height="10" transform="rotate(-0.09614368699756866,75.0827131797516,34.9981050586538)" width="10" x="70.0827" y="29.9981" /><rect height="10" transform="rotate(1.3301858000752091,74.94867176098764,45.096807884821175)" width="10" x="69.9487" y="40.0968" /><rect height="10" transform="rotate(-7.018898612656362,75.17794786833244,54.795805024947114)" width="10" x="70.1779" y="49.7958" /><rect height="10" transform="rotate(-5.54267007830973,74.69558609648922,65.079965475043)" width="10" x="69.6956" y="60.08" /><rect height="10" transform="rotate(-16.258388763829164,74.8615936872436,74.90191890817438)" width="10" x="69.8616" y="69.9019" /><rect height="10" transform="rotate(-12.252067588333292,74.25878099753804,85.48444648848779)" width="10" x="69.2588" y="80.4844" /><rect height="10" transform="rotate(-1.9413939815996746,75.53511103613812,94.32474187608511)" width="10" x="70.5351" y="89.3247" /><rect height="10" transform="rotate(3.30508357174417,75.59272155328357,105.68825414656881)" width="10" x="70.5927" y="100.6883" /><rect height="10" transform="rotate(38.48967472410405,75.53488405380313,115.60572806941848)" width="10" x="70.5349" y="110.6057" /><rect height="10" transform="rotate(-10.06624088239566,73.61159906966395,126.23155371918172)" width="10" x="68.6116" y="121.2316" /><rect height="10" transform="rotate(54.223250497775005,76.09016333092069,135.0851456532212)" width="10" x="71.0902" y="130.0851" /><rect height="10" transform="rotate(44.496009463939934,73.20374919103848,142.59364492561758)" width="10" x="68.2037" y="137.5936" /><rect height="10" transform="rotate(10.154979289849539,72.66073582631125,153.95396078993934)" width="10" x="67.6607" y="148.954" /><rect height="10" transform="rotate(-3.6931927857476228,74.17427316301196,166.78830730139038)" width="10" x="69.1743" y="161.7883" /><rect height="10" transform="rotate(-16.136599675631928,78.08693342212828,173.84367044829895)" width="10" x="73.0869" y="168.8437" /><rect height="10" transform="rotate(33.78000073714108,74.81365017275671,186.10511129885884)" width="10" x="69.8137" y="181.1051" /><rect height="10" transform="rotate(-70.69489248262872,76.96342355649884,193.48989891116565)" width="10" x="71.9634" y="188.4899" /><rect height="10" transform="rotate(0.0,85.0,5.0)" width="10" x="80.0" y="0.0" /><rect height="10" transform="rotate(0.05886160271917103,84.98228247858592,14.987460503977521)" width="10" x="79.9823" y="9.9875" /><rect height="10" transform="rotate(-0.5766942829923128,84.93380377679236,25.0075256089331)" width="10" x="79.9338" y="20.0075" /><rect height="10" transform="rotate(-0.9514670460689917,85.02655068683124,35.02365866681008)" width="10" x="80.0266" y="30.0237" /><rect height="10" transform="rotate(-0.3371838676072215,84.94752249708668,45.136935093889605)" width="10" x="79.9475" y="40.1369" /><rect height="10" transform="rotate(8.818601958477005,84.6761636023083,55.16568421213029)" width="10" x="79.6762" y="50.1657" /><rect height="10" transform="rotate(11.591401979393712,85.35755504244135,65.04296227929707)" width="10" x="80.3576" y="60.043" /><rect height="10" transform="rotate(-4.769565732690677,85.39631996825219,74.6731745443516)" width="10" x="80.3963" y="69.6732" /><rect height="10" transform="rotate(22.158580761955808,85.13492902279098,84.79157668366356)" width="10" x="80.1349" y="79.7916" /><rect height="10" transform="rotate(12.898932392705815,84.41762711324681,95.75067200180453)" width="10" x="79.4176" y="90.7507" /><rect height="10" transform="rotate(24.692040560213645,84.66776690482158,105.89070979768648)" width="10" x="79.6678" y="100.8907" /><rect height="10" transform="rotate(29.774760637491678,85.32098059543698,115.52454971516832)" width="10" x="80.321" y="110.5245" /><rect height="10" transform="rotate(16.53960725625525,83.28937728440866,126.71913831581338)" width="10" x="78.2894" y="121.7191" /><rect height="10" transform="rotate(-42.468185914677825,86.87789831007774,133.34178905515404)" width="10" x="81.8779" y="128.3418" /><rect height="10" transform="rotate(-17.907789610892905,83.04348919690405,145.04003523299812)" width="10" x="78.0435" y="140.04" /><rect height="10" transform="rotate(11.588924425863114,86.4249650053598,157.1506673295817)" width="10" x="81.425" y="152.1507" /><rect height="10" transform="rotate(64.21507393530092,83.55093143195272,168.15698177325066)" width="10" x="78.5509" y="163.157" /><rect height="10" transform="rotate(0.7971472959885495,82.11761872779282,171.85777293551035)" width="10" x="77.1176" y="166.8578" /><rect height="10" transform="rotate(-112.75062181229691,87.21835559815767,183.80342257342198)" width="10" x="82.2184" y="178.8034" /><rect height="10" transform="rotate(111.41390677508825,84.26174330919464,194.48943830002437)" width="10" x="79.2617" y="189.4894" /><rect height="10" transform="rotate(-0.0,95.0,5.0)" width="10" x="90.0" y="0.0" /><rect height="10" transform="rotate(0.24996402612684024,94.98841285567747,15.004127574710427)" width="10" x="89.9884" y="10.0041" /><rect height="10" transform="rotate(0.6124038021757656,94.98302664719462,24.97147596436255)" width="10" x="89.983" y="19.9715" /><rect height="10" transform="rotate(0.2895339501023378,95.03799703896718,34.91773650806681)" width="10" x="90.038" y="29.9177" /><rect height="10" transform="rotate(1.2962355416631108,94.83447508852421,44.94923003852752)" width="10" x="89.8345" y="39.9492" /><rect height="10" transform="rotate(-7.358404552607359,95.3586821216847,54.850687025135436)" width="10" x="90.3587" y="49.8507" /><rect height="10" transform="rotate(4.14162183025305,95.35070031954906,65.26697510046996)" width="10" x="90.3507" y="60.267" /><rect height="10" transform="rotate(-11.630209947672316,95.66086515722886,75.25893667618787)" width="10" x="90.6609" y="70.2589" /><rect height="10" transform="rotate(-23.65945855388801,95.19429053326182,85.2627276848331)" width="10" x="90.1943" y="80.2627" /><rect height="10" transform="rotate(16.63175768897637,95.45776105824876,94.0481499878004)" width="10" x="90.4578" y="89.0481" /><rect height="10" transform="rotate(11.919273508287604,95.93367813262267,105.65800940460899)" width="10" x="90.9337" y="100.658" /><rect height="10" transform="rotate(42.262405510707296,93.69383411226521,115.2361478614643)" width="10" x="88.6938" y="110.2361" /><rect height="10" transform="rotate(45.48954572857336,96.54286668985571,123.81423163088485)" width="10" x="91.5429" y="118.8142" /><rect height="10" transform="rotate(59.3848802982669,93.4911086764865,133.38166729634503)" width="10" x="88.4911" y="128.3817" /><rect height="10" transform="rotate(3.891329808997706,95.01295361749585,143.5919396922826)" width="10" x="90.013" y="138.5919" /><rect height="10" transform="rotate(58.44808658632537,97.58233723513086,155.65937608615206)" width="10" x="92.5823" y="150.6594" /><rect height="10" transform="rotate(81.00857028392129,94.18129705336186,166.64693706704878)" width="10" x="89.1813" y="161.6469" /><rect height="10" transform="rotate(81.4855320085326,92.50460686778739,171.80763324320944)" width="10" x="87.5046" y="166.8076" /><rect height="10" transform="rotate(79.52815273216261,96.39291837584776,185.00163555752698)" width="10" x="91.3929" y="180.0016" /><rect height="10" transform="rotate(-19.670525366788432,95.24579811698086,199.18555446655435)" width="10" x="90.2458" y="194.1856" /></svg>