<?xml version="1.0" encoding="utf-8" ?>
<svg id="all" baseProfile="tiny" fill="none" height="100" stroke="black" stroke-opacity="1.0" stroke-width="0.5" version="1.2" width="100" xmlns="http://www.w3.org/2000/svg" xmlns:ev="http://www.w3.org/2001/xml-events" xmlns:xlink="http://www.w3.org/1999/xlink"><defs /><rect height="10" width="10" x="0" y="0" /><rect height="10" width="10" x="0" y="10" /><rect height="10" width="10" x="0" y="20" /><rect height="10" width="10" x="0" y="30" /><rect height="10" width="10" x="0" y="40" /><rect height="10" width="10" x="0" y="50" /><rect height="10" width="10" x="0" y="60" /><rect height="10" width="10" x="0" y="70" /><rect height="10" width="10" x="0" y="80" /><rect height="10" width="10" x="0" y="90" /><rect height="10" width="10" x="10" y="0" /><rect height="10" width="10" x="10" y="10" /><rect height="10" width="10" x="10" y="20" /><rect height="10" width="10" x="10" y="30" /><rect height="10" width="10" x="10" y="40" /><rect height="10" width="10" x="10" y="50" /><rect height="10" width="10" x="10" y="60" /><rect height="10" width="10" x="10" y="70" /><rect height="10" width="10" x="10" y="80" /><rect height="10" width="10" x="10" y="90" /><rect height="10" width="10" x="20" y="0" /><rect height="10" width="10" x="20" y="10" /><rect height="10" width="10" x="20" y="20" /><rect height="10" width="10" x="20" y="30" /><rect height="10" width="10" x="20" y="40" /><rect height="10" width="10" x="20" y="50" /><rect height="10" width="10" x="20" y="60" /><rect height="10" width="10" x="20" y="70" /><rect height="10" width="10" x="20" y="80" /><rect height="10" width="10" x="20" y="90" /><rect height="10" width="10" x="30" y="0" /><rect height="10" width="10" x="30" y="10" /><rect height="10" width="10" x="30" y="20" /><rect height="10" width="10" x="30" y="30" /><rect height="10" width="10" x="30" y="40" /><rect height="10" width="10" x="30" y="50" /><rect height="10" width="10" x="30" y="60" /><rect height="10" width="10" x="30" y="70" /><rect height="10" width="10" x="30" y="80" /><rect height="10" width="10" x="30" y="90" /><rect height="10" width="10" x="40" y="0" /><rect height="10" width="10" x="40" y="10" /><rect height="10" width="10" x="40" y="20" /><rect height="10" width="10" x="40" y="30" /><rect height="10" width="10" x="40" y="40" /><rect height="10" width="10" x="40" y="50" /><rect height="10" width="10" x="40" y="60" /><rect height="10" width="10" x="40" y="70" /><rect height="10" width="10" x="40" y="80" /><rect height="10" width="10" x="40" y="90" /><rect height="10" width="10" x="50" y="0" /><rect height="10" width="10" x="50" y="10" /><rect height="10" width="10" x="50" y="20" /><rect height="10" width="10" x="50" y="30" /><rect height="10" width="10" x="50" y="40" /><rect height="10" width="10" x="50" y="50" /><rect height="10" width="10" x="50" y="60" /><rect height="10" width="10" x="50" y="70" /><rect height="10" width="10" x="50" y="80" /><rect height="10" width="10" x="50" y="90" /><rect height="10" width="10" x="60" y="0" /><rect height="10" width="10" x="60" y="10" /><rect height="10" width="10" x="60" y="20" /><rect height="10" width="10" x="60" y="30" /><rect height="10" width="10" x="60" y="40" /><rect height="10" width="10" x="60" y="50" /><rect height="10" width="10" x="60" y="60" /><rect height="10" width="10" x="60" y="70" /><rect height="10" width="10" x="60" y="80" /><rect height="10" width="10" x="60" y="90" /><rect height="10" width="10" x="70" y="0" /><rect height="10" width="10" x="70" y="10" /><rect height="10" width="10" x="70" y="20" /><rect height="10" width="10" x="70" y="30" /><rect height="10" width="10" x="70" y="40" /><rect height="10" width="10" x="70" y="50" /><rect height="10" width="10" x="70" y="60" /><rect height="10" width="10" x="70" y="70" /><rect height="10" width="10" x="70" y="80" /><rect height="10" width="10" x="70" y="90" /><rect height="10" width="10" x="80" y="0" /><rect height="10" width="10" x="80" y="10" /><rect height="10" width="10" x="80" y="20" /><rect height="10" width="10" x="80" y="30" /><rect height="10" width="10" x="80" y="40" /><rect height="10" width="10" x="80" y="50" /><rect height="10" width="10" x="80" y="60" /><rect height="10" width="10" x="80" y="70" /><rect height="10" width="10" x="80" y="80" /><rect height="10" width="10" x="80" y="90" /><rect height="10" width="10" x="90" y="0" /><rect height="10" width="10" x="90" y="10" /><rect height="10" width="10" x="90" y="20" /><rect height="10" width="10" x="90" y="30" /><rect height="10" width="10" x="90" y="40" /><rect height="10" width="10" x="90" y="50" /><rect height="10" width="10" x="90" y="60" /><rect height="10" width="10" x="90" y="70" /><rect height="10" width="10" x="90" y="80" /><rect height="10" width="10" x="90" y="90" /></svg>